<svg id="Layer_1" data-name="Layer 1" xmlns="http://www.w3.org/2000/svg" viewBox="0 0 1915.23 618.51"><defs><style>.cls-1{fill:#1d1d1b;}</style></defs><path class="cls-1" d="M267.71,683.06a195.84,195.84,0,0,1-5.68,47.6,109,109,0,0,1-19,40.17q-13.33,17.48-34.94,27.95t-53,10.48q-31.44,0-53.06-10.48T67.06,770.83a108.9,108.9,0,0,1-19-40.17,195.84,195.84,0,0,1-5.67-47.6V492.23H71.21V675.64A220.39,220.39,0,0,0,74.26,711a106.92,106.92,0,0,0,12,34.93,73.89,73.89,0,0,0,25.33,26.64q16.38,10.47,43.45,10.48t43.45-10.48a74,74,0,0,0,25.32-26.64,106.92,106.92,0,0,0,12-34.93,220.46,220.46,0,0,0,3.06-35.37V492.23h28.82Z" transform="translate(-42.39 -190.74)"/><path class="cls-1" d="M346.74,492.23H428q6.12,0,16.6.44a170.82,170.82,0,0,1,22.7,2.62,140.09,140.09,0,0,1,24.9,7,70.49,70.49,0,0,1,22.7,14,72.56,72.56,0,0,1,16.6,23.14q6.54,14,6.55,34.06,0,22.27-7.65,36.68a71.12,71.12,0,0,1-19.21,23.37,80.62,80.62,0,0,1-25.54,13.31A164.36,164.36,0,0,1,459,652.93L548.92,801.4H516.17l-86.9-146.73H375.56V801.4H346.74Zm28.82,136.24H436.7q22.69,0,36.9-5.67t22-14a44.19,44.19,0,0,0,10.7-17.9,55.12,55.12,0,0,0,0-34.93,44.42,44.42,0,0,0-10.7-17.91q-7.86-8.28-22-14t-36.9-5.68H375.56Z" transform="translate(-42.39 -190.74)"/><path class="cls-1" d="M614,744.19q11.35,19.65,29.48,29.26t41.26,9.61a82.57,82.57,0,0,0,27.08-4.37,69.13,69.13,0,0,0,22.05-12.23,57.6,57.6,0,0,0,14.84-19,56.29,56.29,0,0,0,5.46-25.11q0-16.15-6.77-26.64a54.33,54.33,0,0,0-18.12-17.25,133.94,133.94,0,0,0-25.54-11.57q-14.21-4.8-29.26-9.61T645.2,646.38a98,98,0,0,1-25.54-15.94,70.87,70.87,0,0,1-18.12-24.67q-6.78-14.85-6.77-36.68,0-20.52,8.08-36.47A77.8,77.8,0,0,1,624.68,506a97.21,97.21,0,0,1,31.66-16.16,128,128,0,0,1,37.55-5.46,121.62,121.62,0,0,1,46.94,8.95q21.61,9,37.34,29.92l-24.89,17.9q-10.92-15.28-25.55-22.93T693,510.57a94.38,94.38,0,0,0-26.64,3.71,66.67,66.67,0,0,0-22,10.92,53.76,53.76,0,0,0-15.07,18.12q-5.67,10.92-5.67,25.77,0,23.14,11.79,35.59a83.28,83.28,0,0,0,29.47,19.65A313.68,313.68,0,0,0,703.28,637a185.91,185.91,0,0,1,38.43,14.63,82.91,82.91,0,0,1,29.47,25.54Q783,693.54,783,722.36q0,21-7.86,37.12a81.71,81.71,0,0,1-21.18,27.29,91.58,91.58,0,0,1-30.78,16.81,116.69,116.69,0,0,1-36.24,5.68q-30.58,0-56.34-10.7t-44.1-36Z" transform="translate(-42.39 -190.74)"/><path class="cls-1" d="M1103.05,752.93q-22.26,30.12-51.52,43.23t-63.32,13.1q-35.37,0-64.85-12a145.91,145.91,0,0,1-50.43-33.63,154.26,154.26,0,0,1-32.75-51.52q-11.79-29.91-11.79-65.29t11.79-65.06a154.84,154.84,0,0,1,32.75-51.31,148.54,148.54,0,0,1,50.43-33.84q29.48-12.23,64.85-12.23a153.85,153.85,0,0,1,58.73,11.14q27.29,11.13,47.82,37.33l-23.58,19.65q-14.42-21.82-36.9-31.87a111.87,111.87,0,0,0-46.07-10.05q-30.13,0-54.37,10.48a121.29,121.29,0,0,0-41.26,28.82,127.43,127.43,0,0,0-26.2,43.23,161.91,161.91,0,0,0,0,107.43,127.43,127.43,0,0,0,26.2,43.23,121.29,121.29,0,0,0,41.26,28.82q24.24,10.47,54.37,10.48a113.18,113.18,0,0,0,49.12-11.58,118.27,118.27,0,0,0,22.93-14.84A95.1,95.1,0,0,0,1079.47,735Z" transform="translate(-42.39 -190.74)"/><path class="cls-1" d="M1155.89,492.23H1345v26.2H1184.71v110h150.21v26.2H1184.71V775.2H1352v26.2H1155.89Z" transform="translate(-42.39 -190.74)"/><path class="cls-1" d="M1414.83,492.23H1452L1640.15,763h.88V492.23h28.82V801.4h-37.12L1444.52,530.66h-.87V801.4h-28.82Z" transform="translate(-42.39 -190.74)"/><path class="cls-1" d="M1823.12,518.43H1717.44v-26.2h240.17v26.2H1851.94v283h-28.82Z" transform="translate(-42.39 -190.74)"/><rect class="cls-1" x="820.88" y="286.02" width="358.23" height="95.27" transform="translate(1957.61 476.57) rotate(180)"/><rect class="cls-1" x="949.14" y="190.74" width="101.72" height="190.55" transform="translate(1957.61 381.29) rotate(180)"/><rect class="cls-1" x="899.63" y="190.74" width="200.74" height="45.27" transform="translate(1957.61 236.01) rotate(180)"/></svg>