<svg width="56" height="56" viewBox="0 0 56 56" fill="none" xmlns="http://www.w3.org/2000/svg">
<rect width="56" height="56" rx="28" fill="#D9D9D9"/>
<path d="M43 20.5C43 16.3579 39.6421 13 35.5 13H28H20.5C16.3579 13 13 16.3579 13 20.5V35.5C13 39.6421 16.3579 43 20.5 43H35.5C39.6421 43 43 39.6421 43 35.5V20.5Z" stroke="white" stroke-width="2" stroke-linecap="round" stroke-linejoin="round"/>
<path d="M33.3907 30.6985C33.9719 29.5783 34.1852 28.3033 34 27.055C33.8112 25.7816 33.2179 24.6027 32.3076 23.6924C31.3973 22.7822 30.2184 22.1888 28.945 22C27.6967 21.8148 26.4217 22.0281 25.3015 22.6093C24.1813 23.1906 23.2729 24.1102 22.7055 25.2375C22.1381 26.3648 21.9407 27.6423 22.1412 28.8883C22.3416 30.1343 22.9299 31.2853 23.8223 32.1777C24.7147 33.0701 25.8657 33.6584 27.1117 33.8589C28.3577 34.0594 29.6352 33.8619 30.7625 33.2945C31.8898 32.7271 32.8094 31.8187 33.3907 30.6985Z" stroke="white" stroke-width="2" stroke-linecap="round" stroke-linejoin="round"/>
<path d="M36.25 19.75H36.265" stroke="white" stroke-width="2" stroke-linecap="round" stroke-linejoin="round"/>
</svg>
